<mxfile host="app.diagrams.net" modified="2024-05-23T23:58:06.413Z" agent="Mozilla/5.0 (Macintosh; Intel Mac OS X 10_15_7) AppleWebKit/605.1.15 (KHTML, like Gecko) Version/17.2.1 Safari/605.1.15" etag="dGDgOK_Af6UQFr0hg_bS" version="24.4.7" type="github">
  <diagram name="Page-1" id="qZ-K6uX1gHiOTCvtN3Ut">
    <mxGraphModel dx="1144" dy="765" grid="1" gridSize="10" guides="1" tooltips="1" connect="1" arrows="1" fold="1" page="1" pageScale="1" pageWidth="850" pageHeight="1100" math="1" shadow="0">
      <root>
        <mxCell id="0" />
        <mxCell id="1" parent="0" />
        <mxCell id="G1_seMAoeeiv5iTAUMwB-15" style="edgeStyle=orthogonalEdgeStyle;rounded=0;orthogonalLoop=1;jettySize=auto;html=1;exitX=1;exitY=0.5;exitDx=0;exitDy=0;entryX=0;entryY=0.5;entryDx=0;entryDy=0;" edge="1" parent="1" source="G1_seMAoeeiv5iTAUMwB-3" target="G1_seMAoeeiv5iTAUMwB-11">
          <mxGeometry relative="1" as="geometry" />
        </mxCell>
        <mxCell id="G1_seMAoeeiv5iTAUMwB-3" value="$$\text{Rank-one MLP}_2$$" style="rounded=1;whiteSpace=wrap;html=1;" vertex="1" parent="1">
          <mxGeometry x="240" y="170" width="120" height="40" as="geometry" />
        </mxCell>
        <mxCell id="G1_seMAoeeiv5iTAUMwB-16" style="edgeStyle=orthogonalEdgeStyle;rounded=0;orthogonalLoop=1;jettySize=auto;html=1;exitX=1;exitY=0.5;exitDx=0;exitDy=0;entryX=0;entryY=0.5;entryDx=0;entryDy=0;" edge="1" parent="1" source="G1_seMAoeeiv5iTAUMwB-4" target="G1_seMAoeeiv5iTAUMwB-12">
          <mxGeometry relative="1" as="geometry" />
        </mxCell>
        <mxCell id="G1_seMAoeeiv5iTAUMwB-4" value="$$\text{Rank-one MLP}_K$$" style="rounded=1;whiteSpace=wrap;html=1;" vertex="1" parent="1">
          <mxGeometry x="240" y="260" width="120" height="40" as="geometry" />
        </mxCell>
        <mxCell id="G1_seMAoeeiv5iTAUMwB-5" value="$$\vdots$$" style="text;html=1;align=center;verticalAlign=middle;whiteSpace=wrap;rounded=0;" vertex="1" parent="1">
          <mxGeometry x="270" y="220" width="60" height="30" as="geometry" />
        </mxCell>
        <mxCell id="G1_seMAoeeiv5iTAUMwB-7" style="edgeStyle=orthogonalEdgeStyle;rounded=0;orthogonalLoop=1;jettySize=auto;html=1;exitX=1;exitY=0.5;exitDx=0;exitDy=0;entryX=0;entryY=0.5;entryDx=0;entryDy=0;" edge="1" parent="1" source="G1_seMAoeeiv5iTAUMwB-6" target="G1_seMAoeeiv5iTAUMwB-13">
          <mxGeometry relative="1" as="geometry">
            <mxPoint x="240" y="140" as="targetPoint" />
            <Array as="points">
              <mxPoint x="190" y="205" />
              <mxPoint x="190" y="140" />
            </Array>
          </mxGeometry>
        </mxCell>
        <mxCell id="G1_seMAoeeiv5iTAUMwB-8" style="edgeStyle=orthogonalEdgeStyle;rounded=0;orthogonalLoop=1;jettySize=auto;html=1;exitX=1;exitY=0.5;exitDx=0;exitDy=0;entryX=0;entryY=0.5;entryDx=0;entryDy=0;" edge="1" parent="1" source="G1_seMAoeeiv5iTAUMwB-6" target="G1_seMAoeeiv5iTAUMwB-3">
          <mxGeometry relative="1" as="geometry">
            <Array as="points">
              <mxPoint x="190" y="205" />
              <mxPoint x="190" y="190" />
            </Array>
          </mxGeometry>
        </mxCell>
        <mxCell id="G1_seMAoeeiv5iTAUMwB-9" style="edgeStyle=orthogonalEdgeStyle;rounded=0;orthogonalLoop=1;jettySize=auto;html=1;exitX=1;exitY=0.5;exitDx=0;exitDy=0;entryX=0;entryY=0.5;entryDx=0;entryDy=0;" edge="1" parent="1" source="G1_seMAoeeiv5iTAUMwB-6" target="G1_seMAoeeiv5iTAUMwB-4">
          <mxGeometry relative="1" as="geometry">
            <Array as="points">
              <mxPoint x="190" y="205" />
              <mxPoint x="190" y="280" />
            </Array>
          </mxGeometry>
        </mxCell>
        <mxCell id="G1_seMAoeeiv5iTAUMwB-6" value="Input" style="text;html=1;align=center;verticalAlign=middle;whiteSpace=wrap;rounded=0;" vertex="1" parent="1">
          <mxGeometry x="90" y="190" width="60" height="30" as="geometry" />
        </mxCell>
        <mxCell id="G1_seMAoeeiv5iTAUMwB-18" style="edgeStyle=orthogonalEdgeStyle;rounded=0;orthogonalLoop=1;jettySize=auto;html=1;exitX=1;exitY=0.5;exitDx=0;exitDy=0;entryX=0.5;entryY=0;entryDx=0;entryDy=0;" edge="1" parent="1" source="G1_seMAoeeiv5iTAUMwB-10" target="G1_seMAoeeiv5iTAUMwB-17">
          <mxGeometry relative="1" as="geometry" />
        </mxCell>
        <mxCell id="G1_seMAoeeiv5iTAUMwB-10" value="$$\sigma_1$$" style="text;html=1;align=center;verticalAlign=middle;whiteSpace=wrap;rounded=0;" vertex="1" parent="1">
          <mxGeometry x="380" y="125" width="60" height="30" as="geometry" />
        </mxCell>
        <mxCell id="G1_seMAoeeiv5iTAUMwB-21" style="edgeStyle=orthogonalEdgeStyle;rounded=0;orthogonalLoop=1;jettySize=auto;html=1;exitX=1;exitY=0.5;exitDx=0;exitDy=0;entryX=0;entryY=0.5;entryDx=0;entryDy=0;" edge="1" parent="1" source="G1_seMAoeeiv5iTAUMwB-11" target="G1_seMAoeeiv5iTAUMwB-17">
          <mxGeometry relative="1" as="geometry">
            <Array as="points">
              <mxPoint x="440" y="205" />
            </Array>
          </mxGeometry>
        </mxCell>
        <mxCell id="G1_seMAoeeiv5iTAUMwB-11" value="$$\sigma_2$$" style="text;html=1;align=center;verticalAlign=middle;whiteSpace=wrap;rounded=0;" vertex="1" parent="1">
          <mxGeometry x="380" y="175" width="60" height="30" as="geometry" />
        </mxCell>
        <mxCell id="G1_seMAoeeiv5iTAUMwB-20" style="edgeStyle=orthogonalEdgeStyle;rounded=0;orthogonalLoop=1;jettySize=auto;html=1;exitX=1;exitY=0.5;exitDx=0;exitDy=0;entryX=0.5;entryY=1;entryDx=0;entryDy=0;" edge="1" parent="1" source="G1_seMAoeeiv5iTAUMwB-12" target="G1_seMAoeeiv5iTAUMwB-17">
          <mxGeometry relative="1" as="geometry" />
        </mxCell>
        <mxCell id="G1_seMAoeeiv5iTAUMwB-12" value="$$\sigma_K$$" style="text;html=1;align=center;verticalAlign=middle;whiteSpace=wrap;rounded=0;" vertex="1" parent="1">
          <mxGeometry x="380" y="265" width="60" height="30" as="geometry" />
        </mxCell>
        <mxCell id="G1_seMAoeeiv5iTAUMwB-14" style="edgeStyle=orthogonalEdgeStyle;rounded=0;orthogonalLoop=1;jettySize=auto;html=1;exitX=1;exitY=0.5;exitDx=0;exitDy=0;" edge="1" parent="1" source="G1_seMAoeeiv5iTAUMwB-13" target="G1_seMAoeeiv5iTAUMwB-10">
          <mxGeometry relative="1" as="geometry" />
        </mxCell>
        <mxCell id="G1_seMAoeeiv5iTAUMwB-13" value="$$\text{Rank-one MLP}_1$$" style="rounded=1;whiteSpace=wrap;html=1;" vertex="1" parent="1">
          <mxGeometry x="240" y="120" width="120" height="40" as="geometry" />
        </mxCell>
        <mxCell id="G1_seMAoeeiv5iTAUMwB-22" style="edgeStyle=orthogonalEdgeStyle;rounded=0;orthogonalLoop=1;jettySize=auto;html=1;exitX=1;exitY=0.5;exitDx=0;exitDy=0;entryX=0;entryY=0.5;entryDx=0;entryDy=0;" edge="1" parent="1" source="G1_seMAoeeiv5iTAUMwB-17" target="G1_seMAoeeiv5iTAUMwB-23">
          <mxGeometry relative="1" as="geometry">
            <mxPoint x="530" y="205" as="targetPoint" />
          </mxGeometry>
        </mxCell>
        <mxCell id="G1_seMAoeeiv5iTAUMwB-17" value="+" style="ellipse;whiteSpace=wrap;html=1;aspect=fixed;" vertex="1" parent="1">
          <mxGeometry x="470" y="187.5" width="35" height="35" as="geometry" />
        </mxCell>
        <mxCell id="G1_seMAoeeiv5iTAUMwB-23" value="Prediction" style="text;html=1;align=center;verticalAlign=middle;whiteSpace=wrap;rounded=0;" vertex="1" parent="1">
          <mxGeometry x="530" y="190" width="60" height="30" as="geometry" />
        </mxCell>
      </root>
    </mxGraphModel>
  </diagram>
</mxfile>
